@startuml fotball

skinparam linetype ortho

class Fotballklubb

class Spiller {
    -posisjon: string
}

class Trener {
    -spesialisering: string
}

class Lag


Fotballklubb "1" o-- "0..*" Spiller
Fotballklubb "1" o-- "0..*" Trener
Fotballklubb "1" *-- "0..*" Lag

Lag "1" o-- "0..*" Spiller
Trener "1" --o "0..*" Lag

@enduml